<svg xmlns="http://www.w3.org/2000/svg" viewBox="0 0 139.03 53.57"><defs><style>.cls-1{fill:#fff;}</style></defs><title>Asset 2</title><g id="Layer_2" data-name="Layer 2"><g id="Layer_1-2" data-name="Layer 1"><polygon class="cls-1" points="4.72 12.84 7.27 1.08 20.66 1.08 18.11 12.84 4.72 12.84"/><path class="cls-1" d="M.11,35.86C0,36.77,0,37.72,0,38.74c0,8.14,7.42,14.83,20.81,14.83,16,0,21.33-6.91,24.34-17.68H31.27c-1.69,4-4.41,6.66-10.17,6.66-4.82,0-7.7-2.3-7.7-6.12q0-.29,0-.58Z"/><path class="cls-1" d="M32,33.64c.27-.88.64-2.05.87-3H46.44c-.23,1.08-.46,2-.71,3Z"/><path class="cls-1" d="M33.44,28.39l.19-.81.46-2.18,13.42,0-.62,3Z"/><polygon class="cls-1" points="34.56 23.11 35.19 20.11 48.59 20.12 47.97 23.12 34.56 23.11"/><polygon class="cls-1" points="35.65 17.88 36.23 15.12 49.63 15.13 49.06 17.86 35.65 17.88"/><polygon class="cls-1" points="36.7 12.86 39.17 1.08 52.56 1.08 50.1 12.87 36.7 12.86"/><path class="cls-1" d="M.36,33.62c.15-1,.65-3,.52-3l13.33,0c-.22,1-.56,3-.59,3Z"/><path class="cls-1" d="M1.35,28.37a5,5,0,0,0,.09-.56L2,25.37H15.38l-.69,3Z"/><path class="cls-1" d="M2.49,23.09l.65-3H16.41l-.65,3Z"/><polygon class="cls-1" points="3.63 17.87 4.23 15.09 17.62 15.1 16.96 17.85 3.63 17.87"/><polygon class="cls-1" points="81.8 12.85 96.92 12.85 99.22 1.08 55.59 1.08 53.29 12.85 68.41 12.85 81.8 12.85"/><polygon class="cls-1" points="63.52 35.88 59.98 52.49 73.38 52.49 76.91 35.85 63.52 35.88"/><polygon class="cls-1" points="63.99 33.62 64.63 30.63 78.03 30.6 77.39 33.6 63.99 33.62"/><polygon class="cls-1" points="65.11 28.39 65.75 25.37 79.14 25.38 78.51 28.41 65.11 28.39"/><polygon class="cls-1" points="66.23 23.12 66.86 20.12 80.25 20.13 79.62 23.12 66.23 23.12"/><polygon class="cls-1" points="67.34 17.87 67.93 15.11 81.33 15.09 80.73 17.87 67.34 17.87"/><path class="cls-1" d="M125,12.81a7.46,7.46,0,0,1-.81-.43,8.8,8.8,0,0,0-5.4-1.37c-2.14,0-5,.63-5.62,1.84,0,0-14.25,0-14.25,0C101.11,4.12,110.53,0,119.54,0,129.91,0,137.9,2.89,139,12.8Z"/><path class="cls-1" d="M92.9,35.86c.17,11.73,8.64,17.7,20.66,17.7,15,0,23.18-7.7,23.18-16.85q0-.44,0-.86H123a3.64,3.64,0,0,1,.34,1.59c0,2.81-2.23,5.11-7.63,5.11-6.08,0-9.18-1.66-9.42-6.69Z"/><path class="cls-1" d="M112.51,30.61l23,0a13.79,13.79,0,0,1,1,3.1l-15.32,0c-2.09-1.35-5.7-2.13-8.64-2.94Z"/><path class="cls-1" d="M102.14,25.38a22.46,22.46,0,0,0,4.52,2.94h27.47a14.65,14.65,0,0,0-3-2.93S102.1,25.35,102.14,25.38Z"/><path class="cls-1" d="M127.21,23.07a38.5,38.5,0,0,0-5.81-2c-1.16-.31-2.13-.65-3-.9l-19.28,0a10.91,10.91,0,0,0,1.3,3l26.94,0"/><path class="cls-1" d="M98.72,15.1c0,.5-.13,1-.13,1.53s.08.84.11,1.24h14a3.3,3.3,0,0,1-.69-2.26,3.28,3.28,0,0,1,0-.51C112.08,15.18,98.72,15.1,98.72,15.1Z"/></g></g></svg>